<?xml version="1.0" encoding="UTF-8"?>
<svg version="1.1" xmlns="http://www.w3.org/2000/svg" width="160" height="160">
<path d="M0 0 C52.8 0 105.6 0 160 0 C160 52.8 160 105.6 160 160 C107.2 160 54.4 160 0 160 C0 107.2 0 54.4 0 0 Z " fill="#1A1F3B" transform="translate(0,0)"/>
<path d="M0 0 C0.99 0.33 1.98 0.66 3 1 C3 1.99 3 2.98 3 4 C3.66 3.34 4.32 2.68 5 2 C8 1 8 1 11.1875 2.4375 C12.115625 2.953125 13.04375 3.46875 14 4 C13.814375 4.804375 13.62875 5.60875 13.4375 6.4375 C13.2209375 7.7059375 13.2209375 7.7059375 13 9 C13.33 9.33 13.66 9.66 14 10 C14.33 9.01 14.66 8.02 15 7 C15 9.64 15 12.28 15 15 C15.66 15 16.32 15 17 15 C18.21253336 16.74721674 19.34641082 18.54947874 20.4375 20.375 C23.06272944 24.78885677 23.06272944 24.78885677 27 28 C27.495 26.515 27.495 26.515 28 25 C29.9609375 23.7890625 29.9609375 23.7890625 32.375 22.625 C36.18266627 20.63339077 38.25407987 19.07381363 40 15 C42.38564077 15.57584432 44.66682784 16.22227595 47 17 C47.66 16.67 48.32 16.34 49 16 C48.01 15.34 47.02 14.68 46 14 C47.60407328 13.97291433 49.2082785 13.95356517 50.8125 13.9375 C51.70582031 13.92589844 52.59914063 13.91429687 53.51953125 13.90234375 C56 14 56 14 59 15 C59.495 15.99 59.495 15.99 60 17 C60.45375 16.34 60.9075 15.68 61.375 15 C61.91125 14.34 62.4475 13.68 63 13 C63.66 13 64.32 13 65 13 C65 13.66 65 14.32 65 15 C64.34 15 63.68 15 63 15 C63 16.32 63 17.64 63 19 C63.66 19 64.32 19 65 19 C65.33 18.34 65.66 17.68 66 17 C66 17.66 66 18.32 66 19 C66.556875 19.226875 67.11375 19.45375 67.6875 19.6875 C70.66159588 21.37550036 72.72008865 23.46676517 75 26 C75 26.66 75 27.32 75 28 C75.99 27.67 76.98 27.34 78 27 C78 27.66 78 28.32 78 29 C77.01 29 76.02 29 75 29 C75 29.66 75 30.32 75 31 C76.32 30.67 77.64 30.34 79 30 C79.495 32.475 79.495 32.475 80 35 C81.485 35.495 81.485 35.495 83 36 C81.68 36 80.36 36 79 36 C79.33 36.66 79.66 37.32 80 38 C80.06996014 39.70702735 80.08440154 41.41668003 80.0625 43.125 C80.05347656 44.03507812 80.04445313 44.94515625 80.03515625 45.8828125 C80.02355469 46.58148438 80.01195313 47.28015625 80 48 C79.01 47.01 78.02 46.02 77 45 C77.309375 46.175625 77.309375 46.175625 77.625 47.375 C77.74875 48.24125 77.8725 49.1075 78 50 C77.01 50.99 77.01 50.99 76 52 C76.33 52.99 76.66 53.98 77 55 C77 55.66 77 56.32 77 57 C76.01 57.66 75.02 58.32 74 59 C73.5359375 59.928125 73.5359375 59.928125 73.0625 60.875 C71.76479504 63.47040992 70.17517032 65.09672597 68 67 C67.34 67 66.68 67 66 67 C65.67 67.66 65.34 68.32 65 69 C63.515 68.01 63.515 68.01 62 67 C61.505 68.98 61.505 68.98 61 71 C60.34 71 59.68 71 59 71 C58.505 72.98 58.505 72.98 58 75 C58 73.68 58 72.36 58 71 C57.01 71.495 57.01 71.495 56 72 C54.33555539 72.0955931 52.66718037 72.12984645 51 72.125 C50.113125 72.12757812 49.22625 72.13015625 48.3125 72.1328125 C46 72 46 72 44 71 C43.505 72.98 43.505 72.98 43 75 C42.67 74.01 42.34 73.02 42 72 C41.484375 71.484375 40.96875 70.96875 40.4375 70.4375 C39.963125 69.963125 39.48875 69.48875 39 69 C39 68.34 39 67.68 39 67 C38.34 67 37.68 67 37 67 C36.67 67.66 36.34 68.32 36 69 C36 68.34 36 67.68 36 67 C35.1646875 66.690625 35.1646875 66.690625 34.3125 66.375 C31.07498698 64.44999226 29.31768859 61.96149098 27 59 C23.04755764 60.31748079 22.52882134 62.02577298 20.4375 65.5625 C19.34464481 67.40742759 18.21023331 69.22985153 17 71 C16.34 71 15.68 71 15 71 C15 72.65 15 74.3 15 76 C14.34 76 13.68 76 13 76 C12.87625 76.94875 12.7525 77.8975 12.625 78.875 C12 82 12 82 10 84 C5.5689629 84.40282155 2.04726661 83.84766519 -2 82 C-4.1875 79.625 -4.1875 79.625 -6 77 C-6.47824219 76.42894531 -6.95648438 75.85789062 -7.44921875 75.26953125 C-9.44490596 72.34889077 -10.46367815 69.40040973 -11.625 66.0625 C-12.05039062 64.85722656 -12.47578125 63.65195313 -12.9140625 62.41015625 C-16.93397639 49.78646984 -16.84603101 33.33535166 -12 21 C-11.73316406 20.18015625 -11.46632813 19.3603125 -11.19140625 18.515625 C-8.72099928 11.44477126 -4.59097527 5.86129367 0 0 Z " fill="#191F3B" transform="translate(29,37)"/>
<path d="M0 0 C0.66 0 1.32 0 2 0 C6.49157719 4.91934644 10.44487726 10.37105566 14 16 C14.33 15.01 14.66 14.02 15 13 C14.01 12.67 13.02 12.34 12 12 C14.25 11.3125 14.25 11.3125 17 11 C19.3125 12.4375 19.3125 12.4375 21 14 C21.33 13.01 21.66 12.02 22 11 C25 12 25 12 26.28125 14.34375 C32.40762376 30.20948717 33.44139756 45.63049173 33.29296875 62.47265625 C33.287356 64.376497 33.28309387 66.28034216 33.28010559 68.18418884 C33.26878878 73.13412983 33.23943916 78.08379607 33.20599365 83.03363037 C33.16953208 89.00526504 33.15606877 94.97699287 33.13863373 100.94870758 C33.10979061 109.96599466 33.05221265 118.98268193 33 128 C8.25 128 -16.5 128 -42 128 C-42 127.67 -42 127.34 -42 127 C-40.38544922 126.76216797 -40.38544922 126.76216797 -38.73828125 126.51953125 C-22.21618706 124.11336912 -22.21618706 124.11336912 -8 116 C-7.66574265 113.37374861 -7.66574265 113.37374861 -8 111 C-8.804375 110.87625 -9.60875 110.7525 -10.4375 110.625 C-11.283125 110.41875 -12.12875 110.2125 -13 110 C-13.33 109.34 -13.66 108.68 -14 108 C-14.96679688 108.40992188 -15.93359375 108.81984375 -16.9296875 109.2421875 C-35.66483211 117.06077214 -53.67435933 118.72552727 -72.88427734 111.26855469 C-85.5247879 105.95292079 -96.5101285 97.59528235 -104 86 C-104.7109375 83.70703125 -104.7109375 83.70703125 -105 82 C-102.30463834 84.59034757 -100.04811185 87.21419551 -97.875 90.25 C-88.38964292 102.48270152 -74.03780879 109.99646814 -59 113 C-55.17465829 113.38138443 -51.40436659 113.43155983 -47.5625 113.375 C-46.04765015 113.3586853 -46.04765015 113.3586853 -44.50219727 113.34204102 C-29.40223953 113.01915803 -12.99739479 108.02908757 -2 97 C-1.505 95.515 -1.505 95.515 -1 94 C-1.66 94 -2.32 94 -3 94 C-3 94.66 -3 95.32 -3 96 C-3.66 96 -4.32 96 -5 96 C-3.95125002 93.37812506 -3.35068687 92.20628639 -0.875 90.75 C0.053125 90.37875 0.053125 90.37875 1 90 C1.33 90.99 1.66 91.98 2 93 C15.45648739 75.00493402 20.59635778 57.10013648 17.70703125 34.73193359 C15.51922133 22.3019974 9.16693506 12.25856913 1.28515625 2.64453125 C0 1 0 1 0 0 Z " fill="#362A36" transform="translate(127,32)"/>
<path d="M0 0 C0.66 0 1.32 0 2 0 C2 0.66 2 1.32 2 2 C1.34 2 0.68 2 0 2 C0 3.32 0 4.64 0 6 C0.66 6 1.32 6 2 6 C2.33 5.34 2.66 4.68 3 4 C3 4.66 3 5.32 3 6 C3.556875 6.226875 4.11375 6.45375 4.6875 6.6875 C7.66159588 8.37550036 9.72008865 10.46676517 12 13 C12 13.66 12 14.32 12 15 C12.99 14.67 13.98 14.34 15 14 C15 14.66 15 15.32 15 16 C14.01 16 13.02 16 12 16 C12 16.66 12 17.32 12 18 C13.32 17.67 14.64 17.34 16 17 C16.495 19.475 16.495 19.475 17 22 C17.99 22.33 18.98 22.66 20 23 C18.68 23 17.36 23 16 23 C16.495 23.99 16.495 23.99 17 25 C17.06996014 26.70702735 17.08440154 28.41668003 17.0625 30.125 C17.05347656 31.03507812 17.04445312 31.94515625 17.03515625 32.8828125 C17.02355469 33.58148438 17.01195312 34.28015625 17 35 C16.01 34.01 15.02 33.02 14 32 C14.20625 32.78375 14.4125 33.5675 14.625 34.375 C14.74875 35.24125 14.8725 36.1075 15 37 C14.34 37.66 13.68 38.32 13 39 C13.33 39.99 13.66 40.98 14 42 C14 42.66 14 43.32 14 44 C13.01 44.66 12.02 45.32 11 46 C10.690625 46.61875 10.38125 47.2375 10.0625 47.875 C8.76479504 50.47040992 7.17517032 52.09672597 5 54 C4.34 54 3.68 54 3 54 C2.505 54.99 2.505 54.99 2 56 C1.01 55.34 0.02 54.68 -1 54 C-1.33 55.32 -1.66 56.64 -2 58 C-2.66 58 -3.32 58 -4 58 C-4.33 59.32 -4.66 60.64 -5 62 C-5 60.68 -5 59.36 -5 58 C-5.99 58.495 -5.99 58.495 -7 59 C-8.66444461 59.0955931 -10.33281963 59.12984645 -12 59.125 C-12.886875 59.12757812 -13.77375 59.13015625 -14.6875 59.1328125 C-17 59 -17 59 -19 58 C-19.33 59.32 -19.66 60.64 -20 62 C-20.495 60.515 -20.495 60.515 -21 59 C-21.515625 58.484375 -22.03125 57.96875 -22.5625 57.4375 C-23.036875 56.963125 -23.51125 56.48875 -24 56 C-24 55.34 -24 54.68 -24 54 C-24.66 54 -25.32 54 -26 54 C-26.33 54.66 -26.66 55.32 -27 56 C-27 55.34 -27 54.68 -27 54 C-27.99 53.67 -28.98 53.34 -30 53 C-29.01 52.505 -29.01 52.505 -28 52 C-28.33 50.35 -28.66 48.7 -29 47 C-26.35239499 44.8251816 -24.34733143 43.69255133 -21 43 C-20.505 42.505 -20.505 42.505 -20 42 C-18.48071962 41.92820036 -16.95832518 41.91607993 -15.4375 41.9375 C-14.61121094 41.94652344 -13.78492187 41.95554688 -12.93359375 41.96484375 C-12.29550781 41.97644531 -11.65742187 41.98804688 -11 42 C-11 40.68 -11 39.36 -11 38 C-10.34 38 -9.68 38 -9 38 C-9.57352893 34.12867972 -11.48704352 31.91827204 -14 29 C-14.33 31.64 -14.66 34.28 -15 37 C-14.01 37 -13.02 37 -12 37 C-12 37.66 -12 38.32 -12 39 C-16.29 39 -20.58 39 -25 39 C-25 38.34 -25 37.68 -25 37 C-24.01 37 -23.02 37 -22 37 C-22 30.07 -22 23.14 -22 16 C-22.99 16 -23.98 16 -25 16 C-25.33 15.34 -25.66 14.68 -26 14 C-26.99 14.495 -26.99 14.495 -28 15 C-28 14.34 -28 13.68 -28 13 C-29.65 13.33 -31.3 13.66 -33 14 C-33.33 13.34 -33.66 12.68 -34 12 C-33.37351563 11.61328125 -32.74703125 11.2265625 -32.1015625 10.828125 C-31.28429688 10.30734375 -30.46703125 9.7865625 -29.625 9.25 C-28.81289063 8.73953125 -28.00078125 8.2290625 -27.1640625 7.703125 C-24.91444321 5.9326665 -24.04093152 4.63092581 -23 2 C-20.61435923 2.57584432 -18.33317216 3.22227595 -16 4 C-15.34 3.67 -14.68 3.34 -14 3 C-14.99 2.34 -15.98 1.68 -17 1 C-15.39592672 0.97291433 -13.7917215 0.95356517 -12.1875 0.9375 C-11.29417969 0.92589844 -10.40085937 0.91429687 -9.48046875 0.90234375 C-7 1 -7 1 -4 2 C-3.67 2.66 -3.34 3.32 -3 4 C-2.54625 3.34 -2.0925 2.68 -1.625 2 C-1.08875 1.34 -0.5525 0.68 0 0 Z " fill="#1A1F3B" transform="translate(92,50)"/>
<path d="M0 0 C0.33 0 0.66 0 1 0 C1.08636719 1.19753906 1.17273437 2.39507812 1.26171875 3.62890625 C2.60741722 20.04507175 6.54185032 33.37715067 16 47 C16.42023437 47.61359375 16.84046875 48.2271875 17.2734375 48.859375 C27.39165946 62.20681674 44.79887841 69.62938898 61 72 C75.6936668 73.6322328 89.65172079 70.03239541 103 64 C103.33 64.99 103.66 65.98 104 67 C106.01508358 67.73323796 106.01508358 67.73323796 108 68 C108.33 69.98 108.66 71.96 109 74 C100.1686577 78.83274354 92.03172517 82.30545183 82 84 C81.27296875 84.13019531 80.5459375 84.26039063 79.796875 84.39453125 C60.36153277 87.35723586 39.22804729 82.39062214 23.19921875 71.01171875 C18.86342514 67.60089445 14.75338596 64.04970591 11 60 C10.40832031 59.41347656 9.81664063 58.82695312 9.20703125 58.22265625 C-3.07608757 45.46436842 -10.30446831 27.65916189 -10 10 C-9.67 10 -9.34 10 -9 10 C-8.67 11.65 -8.34 13.3 -8 15 C-5.30074958 11.25587844 -3.82878826 8.49913624 -3 4 C-1.5 1.6875 -1.5 1.6875 0 0 Z " fill="#181D39" transform="translate(11,75)"/>
<path d="M0 0 C0.33 0 0.66 0 1 0 C1 24.75 1 49.5 1 75 C-23.75 75 -48.5 75 -74 75 C-74 74.67 -74 74.34 -74 74 C-72.38544922 73.76216797 -72.38544922 73.76216797 -70.73828125 73.51953125 C-48.94562751 70.11803239 -29.18730221 61.37210234 -15.57373047 43.36108398 C-6.32133274 30.37164021 -1.5487909 15.79766723 0 0 Z " fill="#FBFBFB" transform="translate(159,85)"/>
<path d="M0 0 C24.75 0 49.5 0 75 0 C75 24.42 75 48.84 75 74 C74.67 74 74.34 74 74 74 C73.84144531 72.92363281 73.68289062 71.84726563 73.51953125 70.73828125 C71.31219139 56.58591199 67.32500325 44.82549482 59 33 C58.50113281 32.24203125 58.00226563 31.4840625 57.48828125 30.703125 C46.86085048 15.60521328 28.64817914 5.94549742 10.828125 2.453125 C7.22030136 1.87507591 3.63690128 1.35655895 0 1 C0 0.67 0 0.34 0 0 Z " fill="#FCFCFC" transform="translate(85,0)"/>
<path d="M0 0 C0.33 0 0.66 0 1 0 C1.15855469 1.07636719 1.31710938 2.15273437 1.48046875 3.26171875 C4.90255112 25.18624647 13.69549167 44.87736541 31.85205078 58.4987793 C44.3353148 67.42695646 58.64965989 72.94135585 74 74 C74 74.33 74 74.66 74 75 C49.58 75 25.16 75 0 75 C0 50.25 0 25.5 0 0 Z " fill="#FCFCFC" transform="translate(0,85)"/>
<path d="M0 0 C24.42 0 48.84 0 74 0 C74 0.33 74 0.66 74 1 C72.80117187 1.14695313 72.80117187 1.14695313 71.578125 1.296875 C54.64170503 3.60277255 39.81639295 9.53270105 27 21 C26.21625 21.70125 25.4325 22.4025 24.625 23.125 C18.96881284 28.47544731 14.83888157 34.24587754 11 41 C10.53722656 41.80179688 10.07445312 42.60359375 9.59765625 43.4296875 C4.49747903 52.88594314 1.73728164 63.30941618 1 74 C0.67 74 0.34 74 0 74 C0 49.58 0 25.16 0 0 Z " fill="#FBFBFB" transform="translate(0,0)"/>
<path d="M0 0 C22.40220848 -1.30639229 44.12869484 6.55435762 61.05859375 21.14453125 C67.31442135 26.99889323 74.17027296 34.4929574 76 43 C75.34 43.99 74.68 44.98 74 46 C71.36 45.34 68.72 44.68 66 44 C66.66 44.33 67.32 44.66 68 45 C67.67 46.32 67.34 47.64 67 49 C64.57583921 46.01641749 62.20604361 42.99413807 59.875 39.9375 C59.37742187 39.28652344 58.87984375 38.63554688 58.3671875 37.96484375 C57 36 57 36 56.0703125 33.87890625 C54.72198271 31.51194775 53.44960017 31.09440312 51 30 C50.05125 29.113125 49.1025 28.22625 48.125 27.3125 C35.41031504 16.2715103 18.16178632 12.30483076 1.73046875 12.7265625 C-3.27673219 13.09358246 -8.11687983 13.84129352 -13 15 C-13 14.34 -13 13.68 -13 13 C-13.99 12.67 -14.98 12.34 -16 12 C-15.67 11.34 -15.34 10.68 -15 10 C-13.35 10 -11.7 10 -10 10 C-10 9.67 -10 9.34 -10 9 C-8.02 8.34 -6.04 7.68 -4 7 C-5.32 6.67 -6.64 6.34 -8 6 C-7.01 5.34 -6.02 4.68 -5 4 C-5.33 3.34 -5.66 2.68 -6 2 C-4.02 2 -2.04 2 0 2 C0 1.34 0 0.68 0 0 Z " fill="#181E3A" transform="translate(74,0)"/>
<path d="M0 0 C0.66 0.33 1.32 0.66 2 1 C2 1.66 2 2.32 2 3 C2.66 3 3.32 3 4 3 C4.66 4.65 5.32 6.3 6 8 C6 6.35 6 4.7 6 3 C6.495 3.99 6.495 3.99 7 5 C7.99 4.67 8.98 4.34 10 4 C10.66 5.32 11.32 6.64 12 8 C11.34515625 8.36609375 10.6903125 8.7321875 10.015625 9.109375 C-4.98467724 18.00785938 -14.83989733 30.02425951 -21.078125 46.35546875 C-22 48 -22 48 -25 49 C-25.73323796 51.01508358 -25.73323796 51.01508358 -26 53 C-26.66 53 -27.32 53 -28 53 C-28.0825 53.61875 -28.165 54.2375 -28.25 54.875 C-29 57 -29 57 -31.0625 58.25 C-31.701875 58.4975 -32.34125 58.745 -33 59 C-33 57.68 -33 56.36 -33 55 C-33.66 55 -34.32 55 -35 55 C-34.56553218 37.50279606 -24.97623077 23.07328288 -13 11 C-4.74143836 3.1609589 -4.74143836 3.1609589 0 0 Z " fill="#181D39" transform="translate(37,12)"/>
<path d="M0 0 C2.3381615 0.29758419 4.67182036 0.63239269 7 1 C7.66 1 8.32 1 9 1 C15.66666667 1 22.33333333 1 29 1 C29 1.33 29 1.66 29 2 C22.73 2 16.46 2 10 2 C10 2.66 10 3.32 10 4 C10.99 4 11.98 4 13 4 C13 10.93 13 17.86 13 25 C12.01 25 11.02 25 10 25 C10 25.66 10 26.32 10 27 C14.29 27 18.58 27 23 27 C23 26.34 23 25.68 23 25 C22.01 25 21.02 25 20 25 C20 22.03 20 19.06 20 16 C22.64752004 18.57784846 24.94432065 20.91648098 27 24 C26.67 24.66 26.34 25.32 26 26 C25.34 26 24.68 26 24 26 C24 27.32 24 28.64 24 30 C21.03 30.33 18.06 30.66 15 31 C17.97 31.33 20.94 31.66 24 32 C24 32.33 24 32.66 24 33 C22.53626953 32.94779297 22.53626953 32.94779297 21.04296875 32.89453125 C19.77066406 32.86746094 18.49835938 32.84039062 17.1875 32.8125 C15.92292969 32.77769531 14.65835938 32.74289063 13.35546875 32.70703125 C10.08573809 32.72861574 10.08573809 32.72861574 8.05078125 34.26171875 C6.65511928 36.23199469 6.65511928 36.23199469 7 40 C3.83475549 39.66086666 3.02399882 39.02752805 0.875 36.5625 C0.25625 35.716875 -0.3625 34.87125 -1 34 C-1.66 33.34 -2.32 32.68 -3 32 C-2.34 32 -1.68 32 -1 32 C-1 31.01 -1 30.02 -1 29 C-1.66 29 -2.32 29 -3 29 C-4.0070238 23.96488101 -3.97387813 20.76052962 -2 16 C-2.99 16.33 -3.98 16.66 -5 17 C-5 14.69 -5 12.38 -5 10 C-4.34 10 -3.68 10 -3 10 C-3 9.01 -3 8.02 -3 7 C-2.34 7 -1.68 7 -1 7 C-1.020625 6.030625 -1.04125 5.06125 -1.0625 4.0625 C-1 1 -1 1 0 0 Z " fill="#171D3B" transform="translate(57,62)"/>
<path d="M0 0 C4.54105165 4.54105165 4.11218648 14.04028079 4.3125 20.25 C3.96509544 35.14497036 -0.26604485 48.78657056 -7 62 C-8.65 61.01 -10.3 60.02 -12 59 C-11.34 57.35 -10.68 55.7 -10 54 C-11.32 54 -12.64 54 -14 54 C-14.68707555 56.49064888 -15 58.37886292 -15 61 C-16.66666667 61 -18.33333333 61 -20 61 C-18.93365378 58.26525562 -17.80978074 55.58035193 -16.59765625 52.90625 C-11.38137262 41.33220591 -8.66246607 30.38920489 -8.46557617 17.6472168 C-8.31716858 12.41264279 -8.31716858 12.41264279 -6.46875 10.0078125 C-5.9840625 9.67523438 -5.499375 9.34265625 -5 9 C-5 9.66 -5 10.32 -5 11 C-4.34 11 -3.68 11 -3 11 C-3.061875 10.113125 -3.12375 9.22625 -3.1875 8.3125 C-2.98048018 4.65514983 -2.083926 2.95222849 0 0 Z " fill="#181E3A" transform="translate(156,59)"/>
<path d="M0 0 C-0.61875 0.45375 -1.2375 0.9075 -1.875 1.375 C-4.05919833 2.97108919 -4.05919833 2.97108919 -6 5 C-5.01 5.33 -4.02 5.66 -3 6 C-5.48351743 8.48351743 -7.66937119 8.98041975 -11 10 C-11.99 10.33 -12.98 10.66 -14 11 C-13.34 11.66 -12.68 12.32 -12 13 C-10.07997134 12.7863158 -10.07997134 12.7863158 -7.875 12.125 C10.24559036 8.16762969 28.39828249 12.35284134 44 22 C47.2020373 24.48756911 50.16011843 27.10752803 53 30 C50 30 50 30 47.1875 27.4375 C32.45566147 14.32181253 13.75460588 12.92104859 -5 14 C-8.7442677 14.44295179 -12.35831771 15.02423824 -16 16 C-16 16.99 -16 17.98 -16 19 C-15.34 19.33 -14.68 19.66 -14 20 C-15.98 20.33 -17.96 20.66 -20 21 C-20.33 20.34 -20.66 19.68 -21 19 C-27.98525059 22.10614627 -33.50643024 25.67522708 -39 31 C-39.66 30.67 -40.32 30.34 -41 30 C-39.60886005 28.72403068 -38.21185587 27.45445352 -36.8125 26.1875 C-36.03519531 25.47980469 -35.25789063 24.77210937 -34.45703125 24.04296875 C-28.39196941 19 -28.39196941 19 -25 19 C-26.37485532 17.45833358 -26.37485532 17.45833358 -28 16 C-28.66 16 -29.32 16 -30 16 C-30.33 16.99 -30.66 17.98 -31 19 C-31.66 18.67 -32.32 18.34 -33 18 C-33 16.68 -33 15.36 -33 14 C-33.66 14 -34.32 14 -35 14 C-35.33 13.01 -35.66 12.02 -36 11 C-24.54906825 4.25114167 -13.43334291 -0.55972262 0 0 Z " fill="#362935" transform="translate(74,1)"/>
<path d="M0 0 C3.08315385 -0.08733513 6.16598827 -0.14050127 9.25 -0.1875 C10.12269531 -0.21263672 10.99539062 -0.23777344 11.89453125 -0.26367188 C18.34193052 -0.33749706 18.34193052 -0.33749706 21.58203125 1.32421875 C23 3 23 3 23.4375 6 C23 9 23 9 21.625 10.875 C20 12 20 12 18 12 C19.07353741 13.4655595 20.1592554 14.92220152 21.25 16.375 C22.15492187 17.59316406 22.15492187 17.59316406 23.078125 18.8359375 C24.97181904 20.96826778 26.38328518 21.94636704 29 23 C29 23.66 29 24.32 29 25 C25.48291801 25.64864217 22.49504398 25.84158283 19 25 C15.74854767 22.03941242 13.36193831 18.69465211 11 15 C10.67 17.64 10.34 20.28 10 23 C10.99 23 11.98 23 13 23 C13 23.66 13 24.32 13 25 C8.71 25 4.42 25 0 25 C0 24.34 0 23.68 0 23 C0.99 23 1.98 23 3 23 C3 16.07 3 9.14 3 2 C2.01 2 1.02 2 0 2 C0 1.34 0 0.68 0 0 Z " fill="#E4731A" transform="translate(67,64)"/>
<path d="M0 0 C3.2910253 1.09700843 3.96023288 1.87619858 6.0625 4.5 C8.17721767 7.18106401 8.17721767 7.18106401 11 9 C9.49829158 12.94635004 7.25760206 14.50743475 3.75 16.75 C2.35007812 17.67039062 2.35007812 17.67039062 0.921875 18.609375 C-2.33814592 20.16093576 -4.43337762 20.35047734 -8 20 C-9 19 -9 19 -9.2734375 16.296875 C-8.94848142 12.37883318 -7.81469457 10.48538544 -5.625 7.25 C-4.99851562 6.30640625 -4.37203125 5.3628125 -3.7265625 4.390625 C-2 2 -2 2 0 0 Z " fill="#7C482B" transform="translate(54,95)"/>
<path d="M0 0 C3.88172334 0.31274548 5.81147451 1.38848324 9.046875 3.515625 C10.46226563 4.42054687 10.46226563 4.42054687 11.90625 5.34375 C14.25753477 7.23399854 15.23842515 8.48411727 16.296875 11.265625 C15.73097656 11.74773438 15.16507813 12.22984375 14.58203125 12.7265625 C13.84855469 13.35820313 13.11507812 13.98984375 12.359375 14.640625 C11.62847656 15.26710938 10.89757812 15.89359375 10.14453125 16.5390625 C8.21306594 18.14310214 8.21306594 18.14310214 7.296875 20.265625 C3.35052496 18.76391658 1.78944025 16.52322706 -0.453125 13.015625 C-1.06671875 12.08234375 -1.6803125 11.1490625 -2.3125 10.1875 C-3.86406076 6.92747908 -4.05360234 4.83224738 -3.703125 1.265625 C-2.703125 0.265625 -2.703125 0.265625 0 0 Z " fill="#7E492B" transform="translate(48.703125,44.734375)"/>
<path d="M0 0 C3.94635004 1.50170842 5.50743475 3.74239794 7.75 7.25 C8.67039062 8.64992188 8.67039062 8.64992188 9.609375 10.078125 C11.15216984 13.31972763 11.27266387 15.45536975 11 19 C6.96110153 20.34629949 5.07102765 20.50903237 1.15625 18.6484375 C-7.3064759 13.41490964 -7.3064759 13.41490964 -9 9 C-8.51789063 8.60167969 -8.03578125 8.20335938 -7.5390625 7.79296875 C-6.90742187 7.26316406 -6.27578125 6.73335938 -5.625 6.1875 C-4.99851562 5.66542969 -4.37203125 5.14335938 -3.7265625 4.60546875 C-1.7778952 2.91774261 -1.7778952 2.91774261 0 0 Z " fill="#7C482B" transform="translate(104,95)"/>
<path d="M0 0 C0 7.9692967 -3.7513189 13.16097645 -9 19 C-9.66 19 -10.32 19 -11 19 C-12.65625 17.28515625 -12.65625 17.28515625 -14.5 15.0625 C-16.88926999 12.07954821 -16.88926999 12.07954821 -20 10 C-17.03721091 2.27619723 -7.77749047 -2.59249682 0 0 Z " fill="#7C482B" transform="translate(115,46)"/>
<path d="M0 0 C7.44429793 -0.22905532 14.10756598 -0.18534194 20 5 C19.8125 7.3125 19.8125 7.3125 19 10 C14.43687593 13.45317497 10.35468714 14.13624588 4.75 14.0625 C2.39875 14.0315625 2.39875 14.0315625 0 14 C0 9.38 0 4.76 0 0 Z " fill="#7E482B" transform="translate(108,73)"/>
<path d="M0 0 C1.5675 0.020625 3.135 0.04125 4.75 0.0625 C4.75 4.6825 4.75 9.3025 4.75 14.0625 C-3.5391973 14.40315194 -8.27193091 13.71454606 -15.25 9.0625 C-15.0625 6.75 -15.0625 6.75 -14.25 4.0625 C-9.68687593 0.60932503 -5.60468714 -0.07374588 0 0 Z " fill="#7E482B" transform="translate(47.25,72.9375)"/>
<path d="M0 0 C2.3125 0.1875 2.3125 0.1875 5 1 C9.54379776 7.00430419 9.09524476 12.76139825 9 20 C4.38 20 -0.24 20 -5 20 C-5.34065194 11.7108027 -4.65204606 6.97806909 0 0 Z " fill="#7D482B" transform="translate(78,32)"/>
<path d="M0 0 C4.62 0 9.24 0 14 0 C14.39786154 7.06204229 14.23301892 13.04943028 10 19 C7.25 20.0625 7.25 20.0625 5 20 C0.78418425 12.79231501 -0.10916479 8.40568892 0 0 Z " fill="#7E482B" transform="translate(73,108)"/>
<path d="M0 0 C2 2 2 2 2.125 5.125 C2.08375 6.07375 2.0425 7.0225 2 8 C1.01 8.33 0.02 8.66 -1 9 C-3.56039231 12.55610043 -3.5765018 16.76501798 -4 21 C-3.01 21 -2.02 21 -1 21 C-1 21.66 -1 22.32 -1 23 C-5.29 23 -9.58 23 -14 23 C-14 22.34 -14 21.68 -14 21 C-13.01 21 -12.02 21 -11 21 C-11 14.4 -11 7.8 -11 1 C-10.67 2.32 -10.34 3.64 -10 5 C-9.01 4.67 -8.02 4.34 -7 4 C-7.66 3.34 -8.32 2.68 -9 2 C-5.88401212 0.15348866 -3.61754103 -0.38079379 0 0 Z " fill="#DB6E1E" transform="translate(81,66)"/>
<path d="M0 0 C2.77042109 2.77042109 2.39796106 4.76533805 2.625 8.625 C2.69976562 9.81351563 2.77453125 11.00203125 2.8515625 12.2265625 C2.92503906 13.59941406 2.92503906 13.59941406 3 15 C2.67 15 2.34 15 2 15 C1.67 13.35 1.34 11.7 1 10 C0.8453125 10.8353125 0.8453125 10.8353125 0.6875 11.6875 C-0.14178408 14.4769101 -1.34299056 16.6139064 -3 19 C-3.66 19 -4.32 19 -5 19 C-5 20.65 -5 22.3 -5 24 C-5.66 24 -6.32 24 -7 24 C-7 25.65 -7 27.3 -7 29 C-7.33 29 -7.66 29 -8 29 C-8.08089542 26.22858283 -8.14044062 23.45952181 -8.1875 20.6875 C-8.22520508 19.50897461 -8.22520508 19.50897461 -8.26367188 18.30664062 C-8.27333984 17.54931641 -8.28300781 16.79199219 -8.29296875 16.01171875 C-8.3086792 15.31522217 -8.32438965 14.61872559 -8.34057617 13.90112305 C-7.90238443 11.45510217 -6.86562642 10.57297914 -5 9 C-5 9.66 -5 10.32 -5 11 C-4.34 11 -3.68 11 -3 11 C-3.061875 10.113125 -3.12375 9.22625 -3.1875 8.3125 C-2.98048018 4.65514983 -2.083926 2.95222849 0 0 Z " fill="#141A38" transform="translate(156,59)"/>
<path d="M0 0 C4.875 0.875 4.875 0.875 6 2 C6.25 4.9375 6.25 4.9375 6 8 C3 10 3 10 0 10 C0 6.7 0 3.4 0 0 Z " fill="#0F183A" transform="translate(77,66)"/>
<path d="M0 0 C0.763125 0.639375 1.52625 1.27875 2.3125 1.9375 C4.88246713 4.14232781 4.88246713 4.14232781 8 5 C8 5.66 8 6.32 8 7 C6.37536158 7.05395478 4.75021459 7.09277195 3.125 7.125 C2.22007813 7.14820312 1.31515625 7.17140625 0.3828125 7.1953125 C-2 7 -2 7 -4 5 C-4 4.01 -4 3.02 -4 2 C-3.01 2.495 -3.01 2.495 -2 3 C-0.84188612 1.94729537 -0.84188612 1.94729537 0 0 Z " fill="#D96E1E" transform="translate(88,82)"/>
<path d="M0 0 C-1.60558484 1.92536938 -2.47769478 2.91074167 -4.99291992 3.34057617 C-5.73131104 3.32486572 -6.46970215 3.30915527 -7.23046875 3.29296875 C-8.03291016 3.28330078 -8.83535156 3.27363281 -9.66210938 3.26367188 C-10.49548828 3.23853516 -11.32886719 3.21339844 -12.1875 3.1875 C-13.03248047 3.17396484 -13.87746094 3.16042969 -14.74804688 3.14648438 C-16.83230384 3.11115799 -18.91623277 3.05735139 -21 3 C-21 2.67 -21 2.34 -21 2 C-18.25162151 1.46892686 -15.50187625 0.94984119 -12.75 0.4375 C-11.97269531 0.28603516 -11.19539063 0.13457031 -10.39453125 -0.02148438 C-9.64042969 -0.16005859 -8.88632813 -0.29863281 -8.109375 -0.44140625 C-7.07248535 -0.63778687 -7.07248535 -0.63778687 -6.01464844 -0.83813477 C-3.78712058 -1.01710362 -2.12493038 -0.65206197 0 0 Z " fill="#DADBDE" transform="translate(106,157)"/>
<path d="M0 0 C0.33 0 0.66 0 1 0 C1.07654536 4.51617599 1.10228696 8.59085217 0 13 C-0.66 11.68 -1.32 10.36 -2 9 C-3.98 9.99 -3.98 9.99 -6 11 C-6.33 10.34 -6.66 9.68 -7 9 C-5.76302083 7.53515625 -4.52604167 6.0703125 -3.2890625 4.60546875 C-2.10798901 3.1344954 -1.04641471 1.56962206 0 0 Z " fill="#121530" transform="translate(158,85)"/>
<path d="M0 0 C0.99 0 1.98 0 3 0 C2.4140625 6.15234375 2.4140625 6.15234375 2 8 C1.01 8.495 1.01 8.495 0 9 C0 10.65 0 12.3 0 14 C-2.12046792 10.46588679 -2.53199289 7.05606165 -3 3 C-2.01 2.67 -1.02 2.34 0 2 C0 1.34 0 0.68 0 0 Z " fill="#161E3D" transform="translate(148,56)"/>
<path d="M0 0 C0.99 1.485 0.99 1.485 2 3 C2.66 3 3.32 3 4 3 C4.22036864 6.85645121 3.60355101 9.49223216 2 13 C-0.20914 9.68629 -0.22481553 8.6553979 -0.125 4.8125 C-0.10695312 3.91144531 -0.08890625 3.01039062 -0.0703125 2.08203125 C-0.04710937 1.39496094 -0.02390625 0.70789063 0 0 Z " fill="#25243A" transform="translate(51,75)"/>
<path d="M0 0 C0.33 0 0.66 0 1 0 C1 3.3 1 6.6 1 10 C1.99 10.33 2.98 10.66 4 11 C3.34 11.66 2.68 12.32 2 13 C1.59952556 15.32275177 1.2602896 17.65739357 1 20 C0.67 20 0.34 20 0 20 C-0.83854735 13.09811029 -1.01593448 6.88577812 0 0 Z " fill="#D06B20" transform="translate(76,66)"/>
<path d="M0 0 C5.61 0 11.22 0 17 0 C17 0.99 17 1.98 17 3 C11.39 2.34 5.78 1.68 0 1 C0 0.67 0 0.34 0 0 Z " fill="#D6D7DB" transform="translate(85,0)"/>
<path d="M0 0 C0.33 0 0.66 0 1 0 C1.66 5.61 2.32 11.22 3 17 C2.01 17 1.02 17 0 17 C0 11.39 0 5.78 0 0 Z " fill="#D5D6DA" transform="translate(0,85)"/>
<path d="M0 0 C0.33 0.66 0.66 1.32 1 2 C2.65 2 4.3 2 6 2 C4.35 3.32 2.7 4.64 1 6 C1.66 6.66 2.32 7.32 3 8 C1.35 8 -0.3 8 -2 8 C-2.6875 6.25 -2.6875 6.25 -3 4 C-1.5625 1.75 -1.5625 1.75 0 0 Z " fill="#141933" transform="translate(71,151)"/>
<path d="M0 0 C0.66 0 1.32 0 2 0 C3 3 3 3 3 6 C1.02 6.99 1.02 6.99 -1 8 C-0.67 6.68 -0.34 5.36 0 4 C-0.66 4 -1.32 4 -2 4 C-2 4.66 -2 5.32 -2 6 C-2.66 6 -3.32 6 -4 6 C-2.84826645 3.53199953 -1.95216435 1.95216435 0 0 Z " fill="#372A35" transform="translate(126,122)"/>
<path d="M0 0 C5.28 0 10.56 0 16 0 C16 0.33 16 0.66 16 1 C10.72 1.66 5.44 2.32 0 3 C0 2.01 0 1.02 0 0 Z " fill="#E2E4E4" transform="translate(58,0)"/>
<path d="M0 0 C0.598125 0.20625 1.19625 0.4125 1.8125 0.625 C1.8125 1.615 1.8125 2.605 1.8125 3.625 C0.8225 3.955 -0.1675 4.285 -1.1875 4.625 C-2.39632096 6.62516466 -2.39632096 6.62516466 -3.1875 8.625 C-3.8475 6.315 -4.5075 4.005 -5.1875 1.625 C-2.1875 -0.375 -2.1875 -0.375 0 0 Z " fill="#D16A20" transform="translate(86.1875,64.375)"/>
<path d="M0 0 C0 5.28 0 10.56 0 16 C-0.33 16 -0.66 16 -1 16 C-1.66 11.05 -2.32 6.1 -3 1 C-1 0 -1 0 0 0 Z " fill="#D7D8DC" transform="translate(160,58)"/>
<path d="M0 0 C7.425 0.99 7.425 0.99 15 2 C15 2.33 15 2.66 15 3 C9.72 3 4.44 3 -1 3 C-0.67 2.01 -0.34 1.02 0 0 Z " fill="#E0E1E2" transform="translate(59,157)"/>
<path d="M0 0 C0.99 0 1.98 0 3 0 C3.33 2.97 3.66 5.94 4 9 C2.68 8.67 1.36 8.34 0 8 C0.2784375 7.13375 0.2784375 7.13375 0.5625 6.25 C1.04023546 3.79307475 0.75729364 2.35602466 0 0 Z " fill="#E6761A" transform="translate(72,76)"/>
<path d="M0 0 C-0.66 0 -1.32 0 -2 0 C-2 0.99 -2 1.98 -2 3 C-1.34 3.33 -0.68 3.66 0 4 C-1.98 4.33 -3.96 4.66 -6 5 C-6 3.35 -6 1.7 -6 0 C-3.50907189 -1.24546405 -2.58919267 -0.7767578 0 0 Z " fill="#3B2B36" transform="translate(60,17)"/>
<path d="M0 0 C1.5625 1.1875 1.5625 1.1875 3 3 C2.6875 5.6875 2.6875 5.6875 2 8 C0.4375 6.8125 0.4375 6.8125 -1 5 C-0.6875 2.3125 -0.6875 2.3125 0 0 Z " fill="#131732" transform="translate(10,112)"/>
<path d="M0 0 C1.32 0 2.64 0 4 0 C4 1.32 4 2.64 4 4 C1.36 4 -1.28 4 -4 4 C-2.68 3.67 -1.36 3.34 0 3 C0 2.01 0 1.02 0 0 Z " fill="#0F122D" transform="translate(89,155)"/>
<path d="M0 0 C2.64 0.33 5.28 0.66 8 1 C8 1.33 8 1.66 8 2 C6.02 2.33 4.04 2.66 2 3 C1.67 4.98 1.34 6.96 1 9 C0.67 9 0.34 9 0 9 C0 6.03 0 3.06 0 0 Z " fill="#111A37" transform="translate(44,43)"/>
<path d="M0 0 C2.625 0.375 2.625 0.375 5 1 C5.33 2.32 5.66 3.64 6 5 C5.01 5.495 5.01 5.495 4 6 C3.566875 5.525625 3.13375 5.05125 2.6875 4.5625 C0.97690387 2.76313043 0.97690387 2.76313043 -2 2 C-1.34 1.34 -0.68 0.68 0 0 Z " fill="#282438" transform="translate(89,73)"/>
<path d="M0 0 C1.4540625 0.0309375 1.4540625 0.0309375 2.9375 0.0625 C1.9475 0.3925 0.9575 0.7225 -0.0625 1.0625 C-0.3925 1.7225 -0.7225 2.3825 -1.0625 3.0625 C-2.04981742 4.40525169 -3.04844743 5.73982273 -4.0625 7.0625 C-4.10504356 5.06295254 -4.10330783 3.06208364 -4.0625 1.0625 C-3.0625 0.0625 -3.0625 0.0625 0 0 Z " fill="#644036" transform="translate(49.0625,44.9375)"/>
<path d="M0 0 C0.99 0.99 1.98 1.98 3 3 C2.34 4.65 1.68 6.3 1 8 C0.01 7.67 -0.98 7.34 -2 7 C-1.67 6.01 -1.34 5.02 -1 4 C-0.34 4 0.32 4 1 4 C0.67 2.68 0.34 1.36 0 0 Z " fill="#12162E" transform="translate(147,38)"/>
</svg>
